<svg width="96" height="96" viewBox="0 0 96 96" fill="none" xmlns="http://www.w3.org/2000/svg">
<g id="icons8-css 1">
<g id="Group">
<g id="Group_2">
<path id="Vector" d="M81.9419 22.0079H30.058C27.788 22.0079 26 23.9419 26.18 26.2059L30.632 82.4579C30.752 83.9839 31.758 85.2979 33.198 85.8139L54.688 93.5159C55.536 93.8199 56.464 93.8199 57.314 93.5159L78.8039 85.8139C80.2439 85.2979 81.2499 83.9839 81.3699 82.4579L85.8219 26.2059C85.9999 23.9419 84.2119 22.0079 81.9419 22.0079Z" fill="#90CAF9"/>
<path id="Vector_2" d="M18.946 37.58L21.918 75.1499C22.042 76.7179 23.074 78.0699 24.556 78.5999L46.65 86.5179C47.522 86.8299 48.476 86.8299 49.348 86.5179L71.442 78.5999C72.924 78.0699 73.956 76.7179 74.08 75.1499L74.7679 66.4499" stroke="url(#paint0_linear_14_48)" stroke-width="6" stroke-miterlimit="10" stroke-linecap="round" stroke-linejoin="round"/>
<path id="Vector_3" d="M75.918 51.936L78.658 17.316C78.842 14.99 77.004 13 74.67 13H21.33C18.996 13 17.158 14.99 17.342 17.316L17.896 24.326" stroke="url(#paint1_linear_14_48)" stroke-width="6" stroke-miterlimit="10" stroke-linecap="round" stroke-linejoin="round"/>
<path id="Vector_4" d="M35.404 26.8779H64.2979L62.3959 64.4379L49.086 69.1219L35.232 63.8539V59.3659" stroke="url(#paint2_linear_14_48)" stroke-width="6" stroke-miterlimit="10" stroke-linecap="round" stroke-linejoin="round"/>
<path id="Vector_5" d="M40.748 46.0079H63.352" stroke="url(#paint3_linear_14_48)" stroke-width="6" stroke-miterlimit="10" stroke-linecap="round" stroke-linejoin="round"/>
</g>
</g>
</g>
<defs>
<linearGradient id="paint0_linear_14_48" x1="46.857" y1="37.58" x2="46.857" y2="86.7519" gradientUnits="userSpaceOnUse">
<stop stop-color="#FC466B"/>
<stop offset="1" stop-color="#3F5EFB"/>
</linearGradient>
<linearGradient id="paint1_linear_14_48" x1="48" y1="13" x2="48" y2="51.936" gradientUnits="userSpaceOnUse">
<stop stop-color="#FC466B"/>
<stop offset="1" stop-color="#3F5EFB"/>
</linearGradient>
<linearGradient id="paint2_linear_14_48" x1="49.765" y1="26.8779" x2="49.765" y2="69.1219" gradientUnits="userSpaceOnUse">
<stop stop-color="#FC466B"/>
<stop offset="1" stop-color="#3F5EFB"/>
</linearGradient>
<linearGradient id="paint3_linear_14_48" x1="52.05" y1="46.0079" x2="52.05" y2="47.0079" gradientUnits="userSpaceOnUse">
<stop stop-color="#FC466B"/>
<stop offset="1" stop-color="#3F5EFB"/>
</linearGradient>
</defs>
</svg>
